<?xml version="1.0" encoding="utf-8"?>
<!-- Generator: Adobe Illustrator 17.1.0, SVG Export Plug-In . SVG Version: 6.00 Build 0)  -->
<!DOCTYPE svg PUBLIC "-//W3C//DTD SVG 1.1//EN" "http://www.w3.org/Graphics/SVG/1.1/DTD/svg11.dtd">
<svg version="1.1" id="Ebene_1" xmlns="http://www.w3.org/2000/svg" xmlns:xlink="http://www.w3.org/1999/xlink" x="0px" y="0px"
	 viewBox="0 0 270.055 50.661" enable-background="new 0 0 270.055 50.661" xml:space="preserve">
<g>
	<g>
		<path fill="#E63027" d="M18.9,17.394c0.153,3.815,3.244,4.942,6.526,6.597l6.871,3.58c2.722,1.718,4.104,3.913,4.104,7.159
			c0,5.535-4.661,9.664-9.982,10.232h27.107L27.441,0c-1.564,2.869-7.204,12.474-7.615,13.188
			C19.054,14.591,18.845,15.988,18.9,17.394L18.9,17.394z"/>
		<path d="M27.348,27.906l-7.148-3.757c-2.563-1.551-3.927-3.951-3.889-6.797c0.022-1.679,0.453-3.573,0.912-4.725L0,42.437h25.286
			c2.301,0,4.458-0.787,6.077-2.42c1.559-1.574,2.408-3.201,2.416-5.48C33.789,30.967,30.542,29.421,27.348,27.906L27.348,27.906z"
			/>
	</g>
</g>
<g>
	<path d="M81.753,38.083l-1.691,4.258h-6.759l9.425-24.505h6.955l9.229,24.505h-6.792l-1.592-4.258H81.753z M86.206,25.409h-0.064
		l-2.633,7.8h5.298L86.206,25.409z"/>
	<path d="M114.35,24.141c-1.171-0.975-2.665-1.625-4.226-1.625c-1.17,0-2.73,0.683-2.73,2.047c0,1.431,1.722,1.983,2.828,2.341
		l1.625,0.487c3.412,1.008,6.044,2.73,6.044,6.695c0,2.438-0.584,4.939-2.534,6.598c-1.917,1.625-4.485,2.308-6.954,2.308
		c-3.088,0-6.112-1.041-8.613-2.796l2.729-5.135c1.593,1.397,3.478,2.535,5.655,2.535c1.495,0,3.087-0.748,3.087-2.471
		c0-1.787-2.502-2.404-3.867-2.795c-3.997-1.138-6.629-2.177-6.629-6.922c0-4.973,3.542-8.223,8.45-8.223
		c2.469,0,5.491,0.78,7.669,2.015L114.35,24.141z"/>
	<path d="M138.302,38.083l-1.689,4.258h-6.761l9.425-24.505h6.956l9.23,24.505h-6.792l-1.593-4.258H138.302z M142.754,25.409h-0.064
		l-2.632,7.8h5.296L142.754,25.409z"/>
	<path d="M163.131,25.668v8.905c0,2.112,0.52,3.606,2.958,3.606c2.438,0,2.957-1.494,2.957-3.606v-8.905h5.916v10.043
		c0,5.493-3.868,7.182-8.873,7.182c-5.006,0-8.872-1.689-8.872-7.182V25.668H163.131z"/>
	<path d="M185.232,42.341h-5.915V30.543h-2.081v-4.875h2.081v-2.112c0-2.308,0.064-3.997,1.689-5.851
		c1.463-1.722,3.575-2.664,5.818-2.664c0.91,0,1.723,0.162,2.535,0.584v5.104c-0.682-0.293-1.301-0.554-2.08-0.554
		c-1.527,0-2.047,0.911-2.047,2.796v2.697h4.127v4.875h-4.127V42.341z"/>
	<path d="M206.551,37.434v4.907h-16.9l7.834-11.766h-6.793v-4.907h16.641l-7.801,11.766H206.551z"/>
	<path d="M215.326,25.668v8.905c0,2.112,0.52,3.606,2.957,3.606s2.957-1.494,2.957-3.606v-8.905h5.916v10.043
		c0,5.493-3.867,7.182-8.873,7.182c-5.006,0-8.871-1.689-8.871-7.182V25.668H215.326z M217.309,19.526
		c0,1.787-1.43,3.186-3.186,3.186c-1.787,0-3.217-1.399-3.217-3.186c0-1.755,1.43-3.184,3.217-3.184
		C215.879,16.341,217.309,17.771,217.309,19.526z M225.629,19.526c0,1.787-1.43,3.186-3.186,3.186c-1.787,0-3.217-1.399-3.217-3.186
		c0-1.755,1.43-3.184,3.217-3.184C224.199,16.341,225.629,17.771,225.629,19.526z"/>
	<path d="M249.223,40.716c0,7.084-3.51,9.944-9.65,9.944c-3.836,0-8.971-1.981-9.492-6.369h6.631
		c0.162,0.584,0.586,1.007,1.105,1.268c0.52,0.259,1.137,0.39,1.689,0.39c3.186,0,3.803-2.081,3.803-4.777v-0.779
		c-1.527,1.525-3.088,2.274-5.297,2.274c-4.875,0-8.223-3.705-8.223-8.516c0-4.875,3.445-9.035,8.547-9.035
		c1.949,0,3.738,0.65,4.906,2.308h0.066v-1.755h5.914V40.716z M235.898,33.892c0,2.112,1.398,3.737,3.803,3.737
		s3.803-1.625,3.803-3.737c0-2.049-1.398-3.77-3.803-3.77S235.898,31.843,235.898,33.892z"/>
	<path d="M270.055,34.997h-12.447c0,2.404,1.268,3.704,3.705,3.704c1.267,0,2.178-0.422,2.828-1.527h5.688
		c-0.943,3.932-4.682,5.72-8.482,5.72c-5.525,0-9.652-3.119-9.652-8.872c0-5.558,3.801-8.905,9.228-8.905
		c5.785,0,9.133,3.575,9.133,9.264V34.997z M264.562,31.583c-0.293-1.593-1.756-2.633-3.348-2.633c-1.723,0-3.152,0.91-3.51,2.633
		H264.562z"/>
</g>
</svg>
