<?xml version="1.0" encoding="utf-8"?>
<!-- Generator: Adobe Illustrator 16.0.0, SVG Export Plug-In . SVG Version: 6.00 Build 0)  -->
<!DOCTYPE svg PUBLIC "-//W3C//DTD SVG 1.1//EN" "http://www.w3.org/Graphics/SVG/1.1/DTD/svg11.dtd">
<svg version="1.1" id="csm" xmlns="http://www.w3.org/2000/svg" xmlns:xlink="http://www.w3.org/1999/xlink" x="0px" y="0px"
	 width="192px" height="68px" viewBox="0 0 192 68" enable-background="new 0 0 192 68" xml:space="preserve">
<path fill="#D0CAC6" d="M52.651,1.678h16.063v6.109h0.135c1.035-2.488,2.619-4.264,4.758-5.329c2.137-1.062,4.557-1.596,7.254-1.596
	c1.172,0,2.34,0.113,3.51,0.34s2.25,0.588,3.24,1.086s1.855,1.132,2.598,1.901c0.742,0.77,1.293,1.676,1.654,2.715h0.135
	c0.27-0.994,0.82-1.877,1.652-2.646s1.789-1.403,2.867-1.902c1.083-0.497,2.217-0.87,3.411-1.12c1.191-0.248,2.305-0.373,3.34-0.373
	c3.105,0,5.5,0.453,7.188,1.357c1.688,0.906,2.912,2.083,3.678,3.53c0.766,1.449,1.215,3.066,1.352,4.855
	c0.135,1.787,0.201,3.541,0.201,5.26v21.179H98.68V16.679c0-0.496-0.014-1.027-0.035-1.596c-0.023-0.564-0.135-1.084-0.336-1.561
	c-0.203-0.475-0.508-0.871-0.912-1.188s-0.991-0.475-1.756-0.475s-1.338,0.158-1.721,0.475s-0.674,0.713-0.877,1.188
	c-0.201,0.477-0.314,0.996-0.338,1.561c-0.021,0.568-0.033,1.1-0.033,1.596v20.365H75.666V16.679c0-0.496-0.014-1.027-0.035-1.596
	c-0.021-0.564-0.135-1.084-0.336-1.561c-0.203-0.475-0.506-0.871-0.91-1.188c-0.406-0.316-0.969-0.475-1.688-0.475
	c-0.766,0-1.352,0.158-1.756,0.475s-0.709,0.713-0.912,1.188c-0.201,0.477-0.314,0.996-0.336,1.561
	c-0.023,0.568-0.035,1.1-0.035,1.596v20.365H52.651V1.678z"/>
<g>
	<path fill="#1D1D1B" d="M55.197,45.065h0.875l3.104,7.824h-0.807l-0.84-2.096h-3.93l-0.834,2.096h-0.773L55.197,45.065z
		 M53.888,50.122h3.383l-1.693-4.316L53.888,50.122z"/>
	<path fill="#1D1D1B" d="M65.306,52.419c0,0.814-0.197,1.494-0.596,2.041c-0.412,0.553-1.107,0.836-2.09,0.852
		c-0.375-0.008-0.719-0.049-1.033-0.123c-0.307-0.076-0.539-0.135-0.697-0.18l0.057-0.707c0.471,0.254,1.031,0.389,1.682,0.404
		c0.455-0.008,0.814-0.09,1.076-0.246c0.268-0.15,0.467-0.359,0.594-0.629c0.135-0.27,0.221-0.578,0.258-0.93
		c0.029-0.352,0.045-0.729,0.045-1.133h-0.023c-0.402,0.762-0.982,1.137-1.736,1.121c-0.896-0.021-1.525-0.344-1.883-0.963
		c-0.188-0.285-0.318-0.592-0.393-0.92c-0.09-0.328-0.135-0.654-0.135-0.975c-0.008-0.891,0.176-1.607,0.549-2.152
		c0.373-0.553,0.975-0.834,1.805-0.842c0.373,0,0.703,0.043,0.986,0.125c0.277,0.104,0.541,0.324,0.797,0.66h0.021v-0.65h0.717
		V52.419z M61.205,50.032c-0.008,0.582,0.119,1.094,0.381,1.535c0.254,0.463,0.676,0.703,1.268,0.717
		c0.635-0.014,1.086-0.262,1.355-0.74c0.254-0.463,0.381-0.967,0.381-1.512c0-0.711-0.119-1.281-0.359-1.715
		c-0.246-0.441-0.691-0.666-1.334-0.674c-0.336,0-0.607,0.072-0.816,0.213c-0.217,0.135-0.393,0.322-0.527,0.561
		c-0.119,0.225-0.209,0.479-0.27,0.764C61.23,49.464,61.205,49.747,61.205,50.032z"/>
	<path fill="#1D1D1B" d="M71.394,52.71c-0.539,0.203-1.092,0.307-1.66,0.314c-0.934-0.016-1.602-0.303-2.006-0.863
		c-0.402-0.545-0.602-1.256-0.594-2.129c0.008-0.891,0.232-1.611,0.672-2.164c0.426-0.545,1.006-0.822,1.738-0.83
		c0.799,0.016,1.383,0.297,1.748,0.842c0.352,0.537,0.527,1.203,0.527,1.994v0.359h-3.912c0,0.621,0.16,1.133,0.482,1.535
		c0.312,0.426,0.781,0.643,1.4,0.65c0.277,0,0.568-0.049,0.875-0.146c0.307-0.082,0.549-0.174,0.729-0.279V52.71z M71.046,49.628
		c0-0.523-0.109-0.979-0.326-1.367c-0.23-0.396-0.607-0.602-1.131-0.617c-0.516,0.016-0.924,0.225-1.223,0.629
		c-0.307,0.402-0.459,0.855-0.459,1.355H71.046z"/>
	<path fill="#1D1D1B" d="M73.726,48.519c0-0.441-0.016-0.889-0.045-1.346h0.684v1.021h0.021c0.068-0.135,0.146-0.27,0.236-0.404
		s0.201-0.258,0.336-0.369c0.143-0.121,0.316-0.213,0.527-0.281c0.209-0.066,0.459-0.102,0.75-0.102
		c0.703,0.008,1.207,0.217,1.514,0.629c0.291,0.402,0.438,0.926,0.438,1.568v3.654H77.48v-3.475c0-0.545-0.102-0.979-0.303-1.301
		c-0.217-0.305-0.568-0.463-1.053-0.471c-0.629,0.016-1.068,0.24-1.322,0.674c-0.135,0.201-0.229,0.422-0.281,0.66
		c-0.061,0.248-0.09,0.498-0.09,0.752v3.16h-0.705V48.519z"/>
	<path fill="#1D1D1B" d="M84.24,47.937c-0.404-0.188-0.811-0.285-1.223-0.293c-0.688,0.008-1.213,0.229-1.58,0.662
		c-0.381,0.441-0.57,1.016-0.57,1.727c0,0.664,0.186,1.221,0.559,1.67c0.367,0.471,0.871,0.709,1.514,0.717
		c0.441,0,0.871-0.086,1.289-0.258l0.068,0.672c-0.465,0.135-0.953,0.199-1.469,0.191c-0.92-0.016-1.604-0.318-2.051-0.908
		c-0.457-0.574-0.684-1.27-0.684-2.084c0.006-0.904,0.268-1.625,0.783-2.164c0.508-0.545,1.189-0.822,2.041-0.83
		c0.352,0,0.643,0.027,0.873,0.08c0.121,0.021,0.225,0.045,0.314,0.066c0.082,0.029,0.146,0.057,0.191,0.078L84.24,47.937z"/>
	<path fill="#1D1D1B" d="M89.888,52.71c-0.539,0.203-1.092,0.307-1.66,0.314c-0.934-0.016-1.602-0.303-2.006-0.863
		c-0.402-0.545-0.602-1.256-0.594-2.129c0.008-0.891,0.232-1.611,0.672-2.164c0.426-0.545,1.006-0.822,1.738-0.83
		c0.799,0.016,1.383,0.297,1.748,0.842c0.352,0.537,0.527,1.203,0.527,1.994v0.359h-3.912c0,0.621,0.16,1.133,0.482,1.535
		c0.312,0.426,0.781,0.643,1.4,0.65c0.277,0,0.568-0.049,0.875-0.146c0.307-0.082,0.549-0.174,0.729-0.279V52.71z M89.541,49.628
		c0-0.523-0.109-0.979-0.326-1.367c-0.23-0.396-0.607-0.602-1.131-0.617c-0.516,0.016-0.924,0.225-1.223,0.629
		c-0.307,0.402-0.459,0.855-0.459,1.355H89.541z"/>
	<path fill="#1D1D1B" d="M99.617,47.937c-0.402-0.188-0.811-0.285-1.221-0.293c-0.688,0.008-1.215,0.229-1.58,0.662
		c-0.381,0.441-0.573,1.016-0.573,1.727c0,0.664,0.188,1.221,0.561,1.67c0.365,0.471,0.871,0.709,1.514,0.717
		c0.439,0,0.869-0.086,1.289-0.258l0.066,0.672c-0.463,0.135-0.953,0.199-1.469,0.191c-0.918-0.016-1.602-0.318-2.051-0.908
		c-0.455-0.574-0.684-1.27-0.684-2.084c0.008-0.904,0.27-1.625,0.785-2.164c0.508-0.545,1.188-0.822,2.04-0.83
		c0.352,0,0.643,0.027,0.875,0.08c0.119,0.021,0.225,0.045,0.314,0.066c0.082,0.029,0.145,0.057,0.189,0.078L99.617,47.937z"/>
	<path fill="#1D1D1B" d="M100.996,50.032c0-0.814,0.217-1.51,0.65-2.086c0.434-0.59,1.105-0.893,2.018-0.908
		c0.926,0.016,1.607,0.318,2.041,0.908c0.418,0.576,0.627,1.271,0.627,2.086c0,0.799-0.209,1.49-0.627,2.072
		c-0.434,0.6-1.115,0.904-2.041,0.92c-0.912-0.016-1.584-0.32-2.018-0.92C101.213,51.522,100.996,50.831,100.996,50.032z
		 M101.77,50.032c0,0.68,0.164,1.24,0.494,1.682c0.312,0.463,0.781,0.697,1.4,0.705c0.621-0.008,1.096-0.242,1.424-0.705
		c0.314-0.441,0.471-1.002,0.471-1.682s-0.156-1.248-0.471-1.705c-0.328-0.447-0.803-0.676-1.424-0.684
		c-0.619,0.008-1.088,0.236-1.4,0.684C101.934,48.784,101.77,49.353,101.77,50.032z"/>
	<path fill="#1D1D1B" d="M108.227,48.519c0-0.441-0.016-0.889-0.045-1.346h0.684v1.021h0.023c0.066-0.135,0.145-0.27,0.234-0.404
		s0.203-0.258,0.336-0.369c0.143-0.121,0.318-0.213,0.527-0.281c0.209-0.066,0.459-0.102,0.752-0.102
		c0.701,0.008,1.205,0.217,1.512,0.629c0.293,0.402,0.438,0.926,0.438,1.568v3.654h-0.705v-3.475c0-0.545-0.102-0.979-0.303-1.301
		c-0.217-0.305-0.568-0.463-1.055-0.471c-0.627,0.016-1.068,0.24-1.322,0.674c-0.135,0.201-0.229,0.422-0.279,0.66
		c-0.061,0.248-0.09,0.498-0.09,0.752v3.16h-0.707V48.519z"/>
	<path fill="#1D1D1B" d="M116.074,52.419c0.35,0,0.648-0.094,0.896-0.279c0.238-0.172,0.361-0.42,0.369-0.74
		c-0.008-0.336-0.146-0.602-0.414-0.797c-0.27-0.186-0.588-0.354-0.953-0.504c-0.172-0.082-0.336-0.168-0.494-0.258
		c-0.156-0.09-0.307-0.189-0.447-0.303c-0.127-0.119-0.232-0.258-0.314-0.414c-0.082-0.15-0.123-0.326-0.123-0.527
		c0.008-0.568,0.201-0.971,0.582-1.211c0.367-0.23,0.793-0.348,1.279-0.348c0.164,0,0.377,0.016,0.639,0.047
		c0.262,0.047,0.52,0.121,0.773,0.223l-0.068,0.605c-0.41-0.172-0.832-0.262-1.266-0.27c-0.367,0-0.658,0.068-0.875,0.201
		c-0.111,0.066-0.197,0.16-0.258,0.279c-0.066,0.117-0.1,0.273-0.1,0.467c0,0.119,0.041,0.23,0.123,0.334
		c0.082,0.098,0.189,0.186,0.324,0.268c0.135,0.074,0.287,0.152,0.459,0.234c0.172,0.074,0.34,0.156,0.506,0.246
		c0.373,0.158,0.697,0.369,0.975,0.631c0.275,0.262,0.418,0.625,0.426,1.09c0,0.301-0.061,0.551-0.18,0.754
		c-0.127,0.209-0.287,0.379-0.482,0.506c-0.418,0.248-0.861,0.371-1.332,0.371c-0.555,0-1.088-0.09-1.604-0.27l0.066-0.695
		C115.016,52.292,115.514,52.411,116.074,52.419z"/>
	<path fill="#1D1D1B" d="M123.773,52.71c-0.537,0.203-1.09,0.307-1.658,0.314c-0.934-0.016-1.604-0.303-2.006-0.863
		c-0.404-0.545-0.602-1.256-0.594-2.129c0.006-0.891,0.23-1.611,0.672-2.164c0.426-0.545,1.004-0.822,1.736-0.83
		c0.801,0.016,1.383,0.297,1.75,0.842c0.35,0.537,0.525,1.203,0.525,1.994v0.359h-3.91c0,0.621,0.16,1.133,0.48,1.535
		c0.314,0.426,0.781,0.643,1.402,0.65c0.275,0,0.566-0.049,0.873-0.146c0.307-0.082,0.549-0.174,0.729-0.279V52.71z M123.426,49.628
		c0-0.523-0.107-0.979-0.324-1.367c-0.232-0.396-0.609-0.602-1.133-0.617c-0.516,0.016-0.922,0.225-1.221,0.629
		c-0.307,0.402-0.459,0.855-0.459,1.355H123.426z"/>
	<path fill="#1D1D1B" d="M126.812,45.649h-0.707v-0.941h0.707V45.649z M126.105,47.173h0.707v5.717h-0.707V47.173z"/>
	<path fill="#1D1D1B" d="M129.154,44.483h0.705v8.406h-0.705V44.483z"/>
	<path fill="#1D1D1B" d="M56.564,64.938c-0.537,0.201-1.09,0.307-1.659,0.312c-0.934-0.014-1.603-0.301-2.006-0.861
		c-0.403-0.547-0.602-1.256-0.594-2.131c0.007-0.889,0.231-1.609,0.672-2.162c0.426-0.547,1.005-0.822,1.737-0.83
		c0.8,0.016,1.382,0.295,1.75,0.84c0.35,0.539,0.525,1.203,0.525,1.996v0.359h-3.911c0,0.619,0.16,1.131,0.481,1.535
		c0.313,0.426,0.781,0.643,1.401,0.65c0.276,0,0.567-0.049,0.874-0.146c0.307-0.082,0.549-0.176,0.729-0.279V64.938z M56.216,61.856
		c0-0.523-0.107-0.98-0.324-1.369c-0.232-0.395-0.609-0.6-1.132-0.615c-0.516,0.016-0.923,0.225-1.222,0.627
		c-0.307,0.404-0.459,0.855-0.459,1.357H56.216z"/>
	<path fill="#1D1D1B" d="M58.896,60.745c0-0.439-0.016-0.889-0.045-1.344h0.684v1.02h0.023c0.066-0.135,0.145-0.27,0.234-0.404
		c0.09-0.133,0.203-0.258,0.336-0.369c0.143-0.119,0.318-0.213,0.527-0.279c0.209-0.068,0.459-0.102,0.752-0.102
		c0.701,0.008,1.205,0.217,1.512,0.627c0.293,0.404,0.438,0.928,0.438,1.57v3.654h-0.705v-3.475c0-0.547-0.102-0.98-0.303-1.301
		c-0.217-0.307-0.568-0.463-1.055-0.471c-0.627,0.016-1.068,0.238-1.322,0.672c-0.135,0.201-0.229,0.422-0.279,0.662
		c-0.061,0.246-0.09,0.496-0.09,0.75v3.162h-0.707V60.745z"/>
	<path fill="#1D1D1B" d="M73.087,60.163c-0.404-0.188-0.811-0.283-1.223-0.291c-0.688,0.008-1.213,0.229-1.58,0.66
		c-0.381,0.441-0.57,1.018-0.57,1.727c0,0.666,0.186,1.223,0.559,1.67c0.367,0.471,0.871,0.711,1.514,0.719
		c0.441,0,0.871-0.086,1.289-0.258l0.068,0.672c-0.465,0.135-0.953,0.197-1.469,0.189c-0.92-0.014-1.604-0.316-2.051-0.906
		c-0.457-0.576-0.684-1.271-0.684-2.086c0.006-0.904,0.268-1.625,0.783-2.162c0.508-0.547,1.189-0.822,2.041-0.83
		c0.352,0,0.643,0.025,0.873,0.078c0.121,0.023,0.225,0.045,0.314,0.068c0.082,0.029,0.146,0.055,0.191,0.078L73.087,60.163z"/>
	<path fill="#1D1D1B" d="M74.466,62.259c0-0.814,0.217-1.51,0.65-2.084c0.432-0.59,1.105-0.893,2.018-0.908
		c0.926,0.016,1.605,0.318,2.039,0.908c0.418,0.574,0.627,1.27,0.627,2.084c0,0.801-0.209,1.49-0.627,2.074
		c-0.434,0.598-1.113,0.904-2.039,0.918c-0.912-0.014-1.586-0.32-2.018-0.918C74.683,63.749,74.466,63.06,74.466,62.259z
		 M75.24,62.259c0,0.68,0.164,1.24,0.492,1.682c0.314,0.463,0.781,0.699,1.402,0.707c0.619-0.008,1.094-0.244,1.422-0.707
		c0.314-0.441,0.473-1.002,0.473-1.682s-0.158-1.248-0.473-1.703c-0.328-0.449-0.803-0.676-1.422-0.684
		c-0.621,0.008-1.088,0.234-1.402,0.684C75.404,61.011,75.24,61.579,75.24,62.259z"/>
	<path fill="#1D1D1B" d="M88.599,65.118v-3.801c0-0.209-0.014-0.402-0.045-0.582c-0.045-0.172-0.115-0.322-0.213-0.449
		c-0.09-0.135-0.213-0.238-0.369-0.312c-0.156-0.068-0.352-0.102-0.584-0.102c-0.395,0-0.746,0.164-1.053,0.492
		c-0.314,0.344-0.475,0.875-0.482,1.592v3.162h-0.705v-3.801c0-0.209-0.016-0.402-0.045-0.582c-0.045-0.172-0.117-0.322-0.213-0.449
		c-0.09-0.135-0.213-0.238-0.371-0.312c-0.156-0.068-0.352-0.102-0.582-0.102c-0.396,0-0.748,0.164-1.055,0.492
		c-0.312,0.344-0.475,0.875-0.48,1.592v3.162h-0.707v-4.373c0-0.439-0.016-0.889-0.045-1.344h0.684v0.963l0.023,0.012
		c0.051-0.104,0.123-0.221,0.213-0.348c0.074-0.127,0.18-0.246,0.312-0.357c0.135-0.113,0.303-0.211,0.506-0.293
		c0.201-0.074,0.451-0.111,0.75-0.111c0.135,0,0.281,0.016,0.438,0.045c0.148,0.029,0.299,0.09,0.449,0.18
		c0.148,0.082,0.279,0.201,0.391,0.357c0.113,0.166,0.191,0.375,0.236,0.629h0.021c0.143-0.344,0.371-0.633,0.684-0.863
		c0.307-0.225,0.688-0.34,1.145-0.348c0.582,0.008,1.031,0.188,1.344,0.537c0.307,0.344,0.461,0.805,0.461,1.379v3.936H88.599z"/>
	<path fill="#1D1D1B" d="M98.498,65.118v-3.801c0-0.209-0.016-0.402-0.045-0.582c-0.045-0.172-0.117-0.322-0.213-0.449
		c-0.09-0.135-0.213-0.238-0.371-0.312c-0.156-0.068-0.352-0.102-0.582-0.102c-0.396,0-0.749,0.164-1.055,0.492
		c-0.312,0.344-0.475,0.875-0.48,1.592v3.162h-0.707v-3.801c0-0.209-0.016-0.402-0.045-0.582c-0.045-0.172-0.115-0.322-0.213-0.449
		c-0.09-0.135-0.213-0.238-0.369-0.312c-0.158-0.068-0.352-0.102-0.584-0.102c-0.395,0-0.746,0.164-1.053,0.492
		c-0.314,0.344-0.475,0.875-0.482,1.592v3.162h-0.705v-4.373c0-0.439-0.016-0.889-0.045-1.344h0.684v0.963l0.021,0.012
		c0.053-0.104,0.123-0.221,0.213-0.348c0.074-0.127,0.18-0.246,0.314-0.357c0.135-0.113,0.303-0.211,0.504-0.293
		c0.201-0.074,0.453-0.111,0.752-0.111c0.135,0,0.279,0.016,0.436,0.045c0.15,0.029,0.299,0.09,0.449,0.18
		c0.15,0.082,0.281,0.201,0.393,0.357c0.111,0.166,0.189,0.375,0.234,0.629h0.023c0.143-0.344,0.369-0.633,0.684-0.863
		c0.307-0.225,0.688-0.34,1.143-0.348c0.584,0.008,1.031,0.188,1.346,0.537c0.307,0.344,0.459,0.805,0.459,1.379v3.936H98.498z"/>
	<path fill="#1D1D1B" d="M105.951,63.772c-0.008,0.434,0.008,0.881,0.045,1.346h-0.684v-1.021h-0.021
		c-0.053,0.127-0.125,0.256-0.213,0.383c-0.09,0.133-0.207,0.26-0.348,0.381c-0.143,0.111-0.318,0.201-0.527,0.268
		c-0.209,0.082-0.463,0.123-0.762,0.123c-0.695-0.006-1.195-0.215-1.502-0.627c-0.307-0.402-0.457-0.926-0.449-1.568v-3.654h0.707
		v3.475c0,0.545,0.107,0.971,0.324,1.277c0.209,0.328,0.553,0.494,1.031,0.494c0.322,0,0.594-0.068,0.818-0.203
		c0.225-0.127,0.396-0.291,0.516-0.492c0.135-0.209,0.229-0.434,0.279-0.674c0.053-0.238,0.08-0.477,0.08-0.717v-3.16h0.705V63.772z
		"/>
	<path fill="#1D1D1B" d="M108.283,60.745c0-0.439-0.016-0.889-0.045-1.344h0.684v1.02h0.023c0.066-0.135,0.145-0.27,0.234-0.404
		c0.09-0.133,0.203-0.258,0.336-0.369c0.143-0.119,0.318-0.213,0.527-0.279c0.209-0.068,0.459-0.102,0.752-0.102
		c0.701,0.008,1.205,0.217,1.512,0.627c0.293,0.404,0.438,0.928,0.438,1.57v3.654h-0.705v-3.475c0-0.547-0.102-0.98-0.303-1.301
		c-0.217-0.307-0.568-0.463-1.055-0.471c-0.627,0.016-1.068,0.238-1.322,0.672c-0.135,0.201-0.229,0.422-0.279,0.662
		c-0.061,0.246-0.09,0.496-0.09,0.75v3.162h-0.707V60.745z"/>
	<path fill="#1D1D1B" d="M115.783,57.876h-0.707v-0.941h0.707V57.876z M115.076,59.401h0.707v5.717h-0.707V59.401z"/>
	<path fill="#1D1D1B" d="M121.846,60.163c-0.402-0.188-0.811-0.283-1.221-0.291c-0.688,0.008-1.215,0.229-1.58,0.66
		c-0.381,0.441-0.572,1.018-0.572,1.727c0,0.666,0.188,1.223,0.561,1.67c0.365,0.471,0.871,0.711,1.514,0.719
		c0.439,0,0.869-0.086,1.289-0.258l0.066,0.672c-0.463,0.135-0.953,0.197-1.469,0.189c-0.918-0.014-1.602-0.316-2.051-0.906
		c-0.455-0.576-0.684-1.271-0.684-2.086c0.008-0.904,0.27-1.625,0.785-2.162c0.508-0.547,1.188-0.822,2.039-0.83
		c0.352,0,0.643,0.025,0.875,0.078c0.119,0.023,0.225,0.045,0.314,0.068c0.082,0.029,0.145,0.055,0.189,0.078L121.846,60.163z"/>
	<path fill="#1D1D1B" d="M126.947,64.198h-0.023c-0.164,0.336-0.414,0.594-0.75,0.773c-0.338,0.18-0.691,0.273-1.066,0.279
		c-0.395-0.006-0.717-0.07-0.963-0.189c-0.254-0.111-0.449-0.254-0.584-0.426c-0.238-0.373-0.35-0.707-0.336-0.998
		c0-0.479,0.117-0.855,0.348-1.133c0.225-0.275,0.512-0.473,0.863-0.594c0.352-0.127,0.732-0.209,1.143-0.246
		c0.404-0.021,0.793-0.033,1.166-0.033h0.135v-0.291c0.023-0.98-0.41-1.469-1.301-1.469c-0.59-0.008-1.15,0.148-1.68,0.471v-0.672
		c0.529-0.254,1.09-0.389,1.68-0.404c1.354-0.016,2.021,0.695,2.008,2.129v2.523c-0.008,0.434,0.01,0.832,0.055,1.199h-0.693V64.198
		z M126.879,62.237h-0.201c-0.307,0-0.613,0.008-0.92,0.021c-0.32,0.031-0.611,0.094-0.873,0.191
		c-0.262,0.09-0.471,0.229-0.629,0.414c-0.172,0.188-0.258,0.438-0.258,0.752c0,0.365,0.119,0.627,0.359,0.783
		c0.225,0.166,0.5,0.248,0.83,0.248c0.41,0,0.734-0.082,0.975-0.248c0.23-0.156,0.398-0.344,0.504-0.561
		c0.113-0.23,0.176-0.459,0.191-0.684c0.014-0.23,0.021-0.422,0.021-0.57V62.237z"/>
	<path fill="#1D1D1B" d="M132.293,60.007h-1.301v3.699c0,0.26,0.061,0.48,0.18,0.66c0.113,0.188,0.307,0.281,0.584,0.281
		c0.254,0,0.471-0.045,0.65-0.135l0.045,0.582c-0.084,0.029-0.199,0.064-0.348,0.102c-0.158,0.037-0.33,0.055-0.516,0.055
		c-0.307,0-0.551-0.051-0.729-0.156c-0.172-0.104-0.303-0.242-0.393-0.414c-0.076-0.18-0.123-0.381-0.146-0.605
		c-0.021-0.225-0.033-0.467-0.033-0.729v-3.34h-1.121v-0.605h1.121v-1.379l0.705-0.246v1.625h1.301V60.007z"/>
	<path fill="#1D1D1B" d="M134.826,57.876h-0.707v-0.941h0.707V57.876z M134.119,59.401h0.707v5.717h-0.707V59.401z"/>
	<path fill="#1D1D1B" d="M136.73,62.259c0-0.814,0.217-1.51,0.65-2.084c0.434-0.59,1.105-0.893,2.018-0.908
		c0.926,0.016,1.607,0.318,2.041,0.908c0.418,0.574,0.627,1.27,0.627,2.084c0,0.801-0.209,1.49-0.627,2.074
		c-0.434,0.598-1.115,0.904-2.041,0.918c-0.912-0.014-1.584-0.32-2.018-0.918C136.947,63.749,136.73,63.06,136.73,62.259z
		 M137.504,62.259c0,0.68,0.164,1.24,0.494,1.682c0.312,0.463,0.781,0.699,1.4,0.707c0.621-0.008,1.096-0.244,1.424-0.707
		c0.314-0.441,0.471-1.002,0.471-1.682s-0.156-1.248-0.471-1.703c-0.328-0.449-0.803-0.676-1.424-0.684
		c-0.619,0.008-1.088,0.234-1.4,0.684C137.668,61.011,137.504,61.579,137.504,62.259z"/>
	<path fill="#1D1D1B" d="M143.961,60.745c0-0.439-0.016-0.889-0.045-1.344h0.684v1.02h0.023c0.066-0.135,0.145-0.27,0.234-0.404
		c0.09-0.133,0.203-0.258,0.336-0.369c0.143-0.119,0.318-0.213,0.527-0.279c0.209-0.068,0.459-0.102,0.752-0.102
		c0.701,0.008,1.205,0.217,1.512,0.627c0.293,0.404,0.438,0.928,0.438,1.57v3.654h-0.705v-3.475c0-0.547-0.102-0.98-0.303-1.301
		c-0.217-0.307-0.568-0.463-1.055-0.471c-0.627,0.016-1.068,0.238-1.322,0.672c-0.135,0.201-0.229,0.422-0.279,0.662
		c-0.061,0.246-0.09,0.496-0.09,0.75v3.162h-0.707V60.745z"/>
	<path fill="#1D1D1B" d="M158.971,64.647c0,0.814-0.199,1.494-0.596,2.039c-0.412,0.553-1.109,0.836-2.09,0.852
		c-0.375-0.008-0.721-0.049-1.035-0.123c-0.307-0.074-0.539-0.135-0.695-0.18l0.055-0.705c0.471,0.254,1.031,0.389,1.682,0.402
		c0.457-0.008,0.814-0.09,1.076-0.246c0.27-0.15,0.467-0.359,0.594-0.627c0.135-0.27,0.221-0.58,0.258-0.932
		c0.031-0.35,0.045-0.729,0.045-1.131h-0.021c-0.404,0.762-0.982,1.135-1.738,1.121c-0.896-0.023-1.523-0.344-1.883-0.965
		c-0.186-0.283-0.316-0.59-0.393-0.918c-0.09-0.33-0.135-0.654-0.135-0.977c-0.006-0.889,0.176-1.605,0.551-2.152
		c0.373-0.553,0.975-0.832,1.805-0.84c0.373,0,0.701,0.041,0.986,0.123c0.275,0.105,0.541,0.326,0.795,0.662h0.023v-0.65h0.717
		V64.647z M154.867,62.259c-0.006,0.584,0.121,1.096,0.383,1.535c0.254,0.465,0.676,0.703,1.266,0.719
		c0.635-0.016,1.088-0.262,1.355-0.74c0.254-0.463,0.383-0.967,0.383-1.514c0-0.709-0.121-1.281-0.359-1.715
		c-0.246-0.441-0.691-0.664-1.334-0.672c-0.336,0-0.609,0.07-0.818,0.213c-0.217,0.135-0.393,0.32-0.527,0.561
		c-0.119,0.225-0.209,0.479-0.268,0.762C154.895,61.692,154.867,61.976,154.867,62.259z"/>
	<path fill="#1D1D1B" d="M161.225,56.712h0.705v8.406h-0.705V56.712z"/>
	<path fill="#1D1D1B" d="M163.836,62.259c0-0.814,0.217-1.51,0.65-2.084c0.432-0.59,1.105-0.893,2.018-0.908
		c0.926,0.016,1.605,0.318,2.039,0.908c0.418,0.574,0.627,1.27,0.627,2.084c0,0.801-0.209,1.49-0.627,2.074
		c-0.434,0.598-1.113,0.904-2.039,0.918c-0.912-0.014-1.586-0.32-2.018-0.918C164.053,63.749,163.836,63.06,163.836,62.259z
		 M164.609,62.259c0,0.68,0.164,1.24,0.492,1.682c0.314,0.463,0.781,0.699,1.402,0.707c0.619-0.008,1.094-0.244,1.422-0.707
		c0.314-0.441,0.473-1.002,0.473-1.682s-0.158-1.248-0.473-1.703c-0.328-0.449-0.803-0.676-1.422-0.684
		c-0.621,0.008-1.088,0.234-1.402,0.684C164.773,61.011,164.609,61.579,164.609,62.259z"/>
	<path fill="#1D1D1B" d="M170.998,56.712h0.707v3.652h0.021c0.029-0.082,0.09-0.186,0.18-0.312c0.082-0.119,0.193-0.236,0.336-0.348
		c0.15-0.127,0.33-0.232,0.539-0.314s0.451-0.123,0.729-0.123c0.836,0.008,1.441,0.287,1.814,0.84
		c0.359,0.547,0.539,1.264,0.539,2.152c0,0.859-0.195,1.57-0.584,2.131c-0.395,0.561-0.986,0.848-1.77,0.861
		c-0.814,0.008-1.41-0.34-1.783-1.041h-0.021v0.908h-0.707V56.712z M175.09,62.259c0-0.283-0.02-0.566-0.057-0.852
		c-0.053-0.283-0.145-0.537-0.279-0.762c-0.121-0.24-0.293-0.426-0.516-0.561c-0.225-0.143-0.506-0.213-0.842-0.213
		c-0.312,0-0.578,0.07-0.795,0.213c-0.217,0.148-0.393,0.344-0.527,0.582c-0.254,0.502-0.377,1.031-0.369,1.592
		c-0.008,0.547,0.119,1.072,0.381,1.58c0.135,0.24,0.311,0.43,0.527,0.572c0.209,0.156,0.471,0.236,0.783,0.236
		c0.336,0,0.617-0.08,0.842-0.236c0.223-0.143,0.395-0.324,0.516-0.549c0.135-0.24,0.227-0.5,0.279-0.785
		C175.07,62.802,175.09,62.528,175.09,62.259z"/>
	<path fill="#1D1D1B" d="M181.143,64.198h-0.023c-0.164,0.336-0.414,0.594-0.75,0.773c-0.338,0.18-0.691,0.273-1.066,0.279
		c-0.395-0.006-0.717-0.07-0.963-0.189c-0.254-0.111-0.449-0.254-0.584-0.426c-0.238-0.373-0.35-0.707-0.336-0.998
		c0-0.479,0.117-0.855,0.348-1.133c0.225-0.275,0.512-0.473,0.863-0.594c0.352-0.127,0.732-0.209,1.143-0.246
		c0.404-0.021,0.793-0.033,1.166-0.033h0.135v-0.291c0.023-0.98-0.41-1.469-1.301-1.469c-0.59-0.008-1.15,0.148-1.68,0.471v-0.672
		c0.529-0.254,1.09-0.389,1.68-0.404c1.354-0.016,2.021,0.695,2.008,2.129v2.523c-0.008,0.434,0.01,0.832,0.055,1.199h-0.693V64.198
		z M181.074,62.237h-0.201c-0.307,0-0.613,0.008-0.92,0.021c-0.32,0.031-0.611,0.094-0.873,0.191
		c-0.262,0.09-0.471,0.229-0.629,0.414c-0.172,0.188-0.258,0.438-0.258,0.752c0,0.365,0.119,0.627,0.359,0.783
		c0.225,0.166,0.5,0.248,0.83,0.248c0.41,0,0.734-0.082,0.975-0.248c0.23-0.156,0.398-0.344,0.504-0.561
		c0.113-0.23,0.176-0.459,0.191-0.684c0.014-0.23,0.021-0.422,0.021-0.57V62.237z"/>
	<path fill="#1D1D1B" d="M184.023,56.712h0.705v8.406h-0.705V56.712z"/>
	<path fill="#1D1D1B" d="M190.904,64.938c-0.537,0.201-1.09,0.307-1.658,0.312c-0.934-0.014-1.604-0.301-2.006-0.861
		c-0.404-0.547-0.602-1.256-0.594-2.131c0.006-0.889,0.23-1.609,0.672-2.162c0.426-0.547,1.004-0.822,1.736-0.83
		c0.801,0.016,1.383,0.295,1.75,0.84c0.35,0.539,0.525,1.203,0.525,1.996v0.359h-3.91c0,0.619,0.16,1.131,0.48,1.535
		c0.314,0.426,0.781,0.643,1.402,0.65c0.275,0,0.566-0.049,0.873-0.146c0.307-0.082,0.549-0.176,0.729-0.279V64.938z
		 M190.557,61.856c0-0.523-0.107-0.98-0.324-1.369c-0.232-0.395-0.609-0.6-1.133-0.615c-0.516,0.016-0.922,0.225-1.221,0.627
		c-0.307,0.404-0.459,0.855-0.459,1.357H190.557z"/>
</g>
<path fill-rule="evenodd" clip-rule="evenodd" fill="#7B6E66" d="M49.395,4.871c-1.483-0.785-3.036-1.555-4.884-1.961
	c-4.312-0.949-8.295,0.164-9.804,3.172c-0.904,1.805-0.567,4.023,0.357,5.455c0.901,1.4,2.3,2.359,3.885,2.957
	c3.364,1.273,7.169,1.973,10.195,3.496c2.92,1.467,5.79,3.572,6.345,7.377c0.65,4.457-1.506,7.582-4.028,9.519
	c-2.607,2.004-6.361,3.137-10.73,2.922c-4.287-0.209-7.691-1.379-10.338-3.35c-2.363,1.467-4.828,2.617-8.021,3.102
	c-3.408,0.516-6.959,0.033-9.696-0.963C7.513,34.714,3.421,30.759,1.59,25.511c-1.019-2.922-1.298-6.465-0.748-9.732
	c0.522-3.107,1.83-5.639,3.386-7.701c3.078-4.076,7.935-7.272,14.723-7.592c3.207-0.152,6.137,0.436,8.271,1.568
	c0.553,0.293,1.574,0.955,1.697,1.497c0,0.486,0.016,1.107,0.013,1.641c-0.009,1.67,0.007,3.291,0,5.027
	c-0.089,0.1-0.165-0.148-0.249-0.25c-1.454-1.775-3.246-3.031-6.203-3.387c-3.358-0.404-6.383-0.16-8.697,1.068
	c-2.1,1.113-3.916,2.904-5.062,5.135c-1.174,2.281-1.892,5.191-1.39,8.447c0.446,2.9,1.593,5.164,3.243,6.953
	c1.626,1.76,3.85,3.08,6.666,3.527c3.312,0.527,6.432-0.178,8.592-1.318c1.65-0.889,2.964-2.186,4.541-3.998
	c0,0,3.511,9.488,12.534,9.488c4.22,0,7.817-1.714,9.231-4.669c0.795-1.654,0.746-3.965-0.212-5.561
	c-0.861-1.434-2.249-2.346-3.957-3.031c-4.972-1.996-11.074-2.875-14.58-6.381c-1.186-1.186-2.064-2.6-2.317-4.67
	c-0.264-2.15,0.236-4.18,1.176-5.668c1.775-2.811,4.9-4.514,9.02-4.956c3.819-0.41,7.107,0.562,10.972,0.711
	c0.719,0,1.466,0.018,2.127,0.018c0,2.208-0.017,4.458-0.017,6.75c-0.56,0-1.14,0.021-1.698,0.021
	C52.651,8.449,51.886,6.187,49.395,4.871z"/>
</svg>
